<svg id="visual" viewBox="0 0 900 600" width="900" height="600" xmlns="http://www.w3.org/2000/svg" xmlns:xlink="http://www.w3.org/1999/xlink" version="1.1"><rect x="0" y="0" width="900" height="600" fill="#FFFFFF"></rect><defs><linearGradient id="grad1_0" x1="33.3%" y1="0%" x2="100%" y2="100%"><stop offset="20%" stop-color="#ffffff" stop-opacity="1"></stop><stop offset="80%" stop-color="#ffffff" stop-opacity="1"></stop></linearGradient></defs><defs><linearGradient id="grad2_0" x1="0%" y1="0%" x2="66.7%" y2="100%"><stop offset="20%" stop-color="#ffffff" stop-opacity="1"></stop><stop offset="80%" stop-color="#ffffff" stop-opacity="1"></stop></linearGradient></defs><g transform="translate(900, 0)"><path d="M0 270.4C-34.8 242.1 -69.6 213.9 -112.5 194.9C-155.4 175.9 -206.5 166.1 -234.2 135.2C-261.9 104.3 -266.1 52.1 -270.4 0L0 0Z" fill="#fa3c3c"></path></g><g transform="translate(0, 600)"><path d="M0 -270.4C28.9 -232 57.8 -193.5 101.5 -175.8C145.2 -158.1 203.6 -161.1 234.2 -135.2C264.8 -109.4 267.6 -54.7 270.4 0L0 0Z" fill="#fa3c3c"></path></g></svg>