<svg id="visual" viewBox="0 0 900 600" width="900" height="600" xmlns="http://www.w3.org/2000/svg" xmlns:xlink="http://www.w3.org/1999/xlink" version="1.1"><rect x="0" y="0" width="900" height="600" fill="#FFFFFF"></rect><defs><linearGradient id="grad1_0" x1="33.3%" y1="0%" x2="100%" y2="100%"><stop offset="20%" stop-color="#ff0000" stop-opacity="1"></stop><stop offset="80%" stop-color="#ff0000" stop-opacity="1"></stop></linearGradient></defs><defs><linearGradient id="grad1_1" x1="33.3%" y1="0%" x2="100%" y2="100%"><stop offset="20%" stop-color="#ff0000" stop-opacity="1"></stop><stop offset="80%" stop-color="#ff5b3a" stop-opacity="1"></stop></linearGradient></defs><defs><linearGradient id="grad1_2" x1="33.3%" y1="0%" x2="100%" y2="100%"><stop offset="20%" stop-color="#ff8969" stop-opacity="1"></stop><stop offset="80%" stop-color="#ff5b3a" stop-opacity="1"></stop></linearGradient></defs><defs><linearGradient id="grad1_3" x1="33.3%" y1="0%" x2="100%" y2="100%"><stop offset="20%" stop-color="#ff8969" stop-opacity="1"></stop><stop offset="80%" stop-color="#ffb299" stop-opacity="1"></stop></linearGradient></defs><defs><linearGradient id="grad1_4" x1="33.3%" y1="0%" x2="100%" y2="100%"><stop offset="20%" stop-color="#ffd9cb" stop-opacity="1"></stop><stop offset="80%" stop-color="#ffb299" stop-opacity="1"></stop></linearGradient></defs><defs><linearGradient id="grad1_5" x1="33.3%" y1="0%" x2="100%" y2="100%"><stop offset="20%" stop-color="#ffd9cb" stop-opacity="1"></stop><stop offset="80%" stop-color="#ffffff" stop-opacity="1"></stop></linearGradient></defs><defs><linearGradient id="grad2_0" x1="0%" y1="0%" x2="66.7%" y2="100%"><stop offset="20%" stop-color="#ff0000" stop-opacity="1"></stop><stop offset="80%" stop-color="#ff0000" stop-opacity="1"></stop></linearGradient></defs><defs><linearGradient id="grad2_1" x1="0%" y1="0%" x2="66.7%" y2="100%"><stop offset="20%" stop-color="#ff5b3a" stop-opacity="1"></stop><stop offset="80%" stop-color="#ff0000" stop-opacity="1"></stop></linearGradient></defs><defs><linearGradient id="grad2_2" x1="0%" y1="0%" x2="66.7%" y2="100%"><stop offset="20%" stop-color="#ff5b3a" stop-opacity="1"></stop><stop offset="80%" stop-color="#ff8969" stop-opacity="1"></stop></linearGradient></defs><defs><linearGradient id="grad2_3" x1="0%" y1="0%" x2="66.7%" y2="100%"><stop offset="20%" stop-color="#ffb299" stop-opacity="1"></stop><stop offset="80%" stop-color="#ff8969" stop-opacity="1"></stop></linearGradient></defs><defs><linearGradient id="grad2_4" x1="0%" y1="0%" x2="66.7%" y2="100%"><stop offset="20%" stop-color="#ffb299" stop-opacity="1"></stop><stop offset="80%" stop-color="#ffd9cb" stop-opacity="1"></stop></linearGradient></defs><defs><linearGradient id="grad2_5" x1="0%" y1="0%" x2="66.7%" y2="100%"><stop offset="20%" stop-color="#ffffff" stop-opacity="1"></stop><stop offset="80%" stop-color="#ffd9cb" stop-opacity="1"></stop></linearGradient></defs><g transform="translate(900, 0)"><path d="M0 297.5C-55.4 291.7 -110.9 285.9 -148.7 257.6C-186.6 229.4 -206.8 178.7 -228.6 132C-250.5 85.3 -274 42.7 -297.5 0L0 0Z" fill="#ffece5"></path><path d="M0 247.9C-46.2 243 -92.4 238.2 -123.9 214.7C-155.5 191.1 -172.3 148.9 -190.5 110C-208.7 71.1 -228.3 35.6 -247.9 0L0 0Z" fill="#ffc6b2"></path><path d="M0 198.3C-37 194.4 -73.9 190.6 -99.2 171.7C-124.4 152.9 -137.9 119.1 -152.4 88C-167 56.9 -182.6 28.4 -198.3 0L0 0Z" fill="#ff9e81"></path><path d="M0 148.7C-27.7 145.8 -55.4 142.9 -74.4 128.8C-93.3 114.7 -103.4 89.3 -114.3 66C-125.2 42.7 -137 21.3 -148.7 0L0 0Z" fill="#ff7352"></path><path d="M0 99.2C-18.5 97.2 -37 95.3 -49.6 85.9C-62.2 76.5 -68.9 59.6 -76.2 44C-83.5 28.4 -91.3 14.2 -99.2 0L0 0Z" fill="#ff3e22"></path><path d="M0 49.6C-9.2 48.6 -18.5 47.6 -24.8 42.9C-31.1 38.2 -34.5 29.8 -38.1 22C-41.7 14.2 -45.7 7.1 -49.6 0L0 0Z" fill="#ff0000"></path></g><g transform="translate(0, 600)"><path d="M0 -297.5C20.5 -235.6 41.1 -173.8 90.5 -156.8C139.9 -139.7 218.3 -167.4 257.6 -148.7C296.9 -130.1 297.2 -65 297.5 0L0 0Z" fill="#ffece5"></path><path d="M0 -247.9C17.1 -196.4 34.2 -144.8 75.4 -130.6C116.6 -116.4 181.9 -139.5 214.7 -123.9C247.4 -108.4 247.7 -54.2 247.9 0L0 0Z" fill="#ffc6b2"></path><path d="M0 -198.3C13.7 -157.1 27.4 -115.9 60.3 -104.5C93.3 -93.1 145.5 -111.6 171.7 -99.2C197.9 -86.7 198.1 -43.4 198.3 0L0 0Z" fill="#ff9e81"></path><path d="M0 -148.7C10.3 -117.8 20.5 -86.9 45.2 -78.4C70 -69.8 109.1 -83.7 128.8 -74.4C148.5 -65 148.6 -32.5 148.7 0L0 0Z" fill="#ff7352"></path><path d="M0 -99.2C6.8 -78.5 13.7 -57.9 30.2 -52.3C46.6 -46.6 72.8 -55.8 85.9 -49.6C99 -43.4 99.1 -21.7 99.2 0L0 0Z" fill="#ff3e22"></path><path d="M0 -49.6C3.4 -39.3 6.8 -29 15.1 -26.1C23.3 -23.3 36.4 -27.9 42.9 -24.8C49.5 -21.7 49.5 -10.8 49.6 0L0 0Z" fill="#ff0000"></path></g></svg>