<svg id="visual" viewBox="0 0 600 900" width="600" height="900" xmlns="http://www.w3.org/2000/svg" xmlns:xlink="http://www.w3.org/1999/xlink" version="1.1"><rect x="0" y="0" width="600" height="900" fill="#FFFFFF"></rect><defs><linearGradient id="grad1_0" x1="0%" y1="0%" x2="100%" y2="100%"><stop offset="30%" stop-color="#ff0000" stop-opacity="1"></stop><stop offset="70%" stop-color="#ff0000" stop-opacity="1"></stop></linearGradient></defs><defs><linearGradient id="grad1_1" x1="0%" y1="0%" x2="100%" y2="100%"><stop offset="30%" stop-color="#ff0000" stop-opacity="1"></stop><stop offset="70%" stop-color="#ff6846" stop-opacity="1"></stop></linearGradient></defs><defs><linearGradient id="grad1_2" x1="0%" y1="0%" x2="100%" y2="100%"><stop offset="30%" stop-color="#ff9e81" stop-opacity="1"></stop><stop offset="70%" stop-color="#ff6846" stop-opacity="1"></stop></linearGradient></defs><defs><linearGradient id="grad1_3" x1="0%" y1="0%" x2="100%" y2="100%"><stop offset="30%" stop-color="#ff9e81" stop-opacity="1"></stop><stop offset="70%" stop-color="#ffcfbf" stop-opacity="1"></stop></linearGradient></defs><defs><linearGradient id="grad1_4" x1="0%" y1="0%" x2="100%" y2="100%"><stop offset="30%" stop-color="#ffffff" stop-opacity="1"></stop><stop offset="70%" stop-color="#ffcfbf" stop-opacity="1"></stop></linearGradient></defs><defs><linearGradient id="grad2_0" x1="0%" y1="0%" x2="100%" y2="100%"><stop offset="30%" stop-color="#ff0000" stop-opacity="1"></stop><stop offset="70%" stop-color="#ff0000" stop-opacity="1"></stop></linearGradient></defs><defs><linearGradient id="grad2_1" x1="0%" y1="0%" x2="100%" y2="100%"><stop offset="30%" stop-color="#ff6846" stop-opacity="1"></stop><stop offset="70%" stop-color="#ff0000" stop-opacity="1"></stop></linearGradient></defs><defs><linearGradient id="grad2_2" x1="0%" y1="0%" x2="100%" y2="100%"><stop offset="30%" stop-color="#ff6846" stop-opacity="1"></stop><stop offset="70%" stop-color="#ff9e81" stop-opacity="1"></stop></linearGradient></defs><defs><linearGradient id="grad2_3" x1="0%" y1="0%" x2="100%" y2="100%"><stop offset="30%" stop-color="#ffcfbf" stop-opacity="1"></stop><stop offset="70%" stop-color="#ff9e81" stop-opacity="1"></stop></linearGradient></defs><defs><linearGradient id="grad2_4" x1="0%" y1="0%" x2="100%" y2="100%"><stop offset="30%" stop-color="#ffcfbf" stop-opacity="1"></stop><stop offset="70%" stop-color="#ffffff" stop-opacity="1"></stop></linearGradient></defs><g transform="translate(600, 0)"><path d="M0 324.5C-50.3 305.3 -100.5 286.2 -151 261.5C-201.5 236.9 -252.1 206.8 -281 162.2C-310 117.7 -317.2 58.9 -324.5 0L0 0Z" fill="#ffe7de"></path><path d="M0 259.6C-40.2 244.3 -80.4 228.9 -120.8 209.2C-161.2 189.5 -201.7 165.4 -224.8 129.8C-248 94.2 -253.8 47.1 -259.6 0L0 0Z" fill="#ffb7a0"></path><path d="M0 194.7C-30.2 183.2 -60.3 171.7 -90.6 156.9C-120.9 142.1 -151.2 124.1 -168.6 97.3C-186 70.6 -190.3 35.3 -194.7 0L0 0Z" fill="#ff8464"></path><path d="M0 129.8C-20.1 122.1 -40.2 114.5 -60.4 104.6C-80.6 94.8 -100.8 82.7 -112.4 64.9C-124 47.1 -126.9 23.5 -129.8 0L0 0Z" fill="#ff4628"></path><path d="M0 64.9C-10.1 61.1 -20.1 57.2 -30.2 52.3C-40.3 47.4 -50.4 41.4 -56.2 32.4C-62 23.5 -63.4 11.8 -64.9 0L0 0Z" fill="#ff0000"></path></g><g transform="translate(0, 900)"><path d="M0 -324.5C61.3 -318.6 122.6 -312.8 162.2 -281C201.9 -249.3 219.9 -191.7 243.4 -140.5C266.8 -89.3 295.6 -44.7 324.5 0L0 0Z" fill="#ffe7de"></path><path d="M0 -259.6C49 -254.9 98.1 -250.2 129.8 -224.8C161.5 -199.4 175.9 -153.3 194.7 -112.4C213.4 -71.5 236.5 -35.7 259.6 0L0 0Z" fill="#ffb7a0"></path><path d="M0 -194.7C36.8 -191.2 73.6 -187.7 97.3 -168.6C121.1 -149.6 132 -115 146 -84.3C160.1 -53.6 177.4 -26.8 194.7 0L0 0Z" fill="#ff8464"></path><path d="M0 -129.8C24.5 -127.5 49 -125.1 64.9 -112.4C80.8 -99.7 88 -76.7 97.3 -56.2C106.7 -35.7 118.3 -17.9 129.8 0L0 0Z" fill="#ff4628"></path><path d="M0 -64.9C12.3 -63.7 24.5 -62.6 32.4 -56.2C40.4 -49.9 44 -38.3 48.7 -28.1C53.4 -17.9 59.1 -8.9 64.9 0L0 0Z" fill="#ff0000"></path></g></svg>