<svg id="visual" viewBox="0 0 960 540" width="960" height="540" xmlns="http://www.w3.org/2000/svg" xmlns:xlink="http://www.w3.org/1999/xlink" version="1.1"><g fill="none" stroke="#A7233A" stroke-width="2"><circle r="22" cx="661" cy="151"></circle><circle r="0" cx="883" cy="538"></circle><circle r="15" cx="65" cy="85"></circle><circle r="-1" cx="407" cy="333"></circle><circle r="0" cx="51" cy="531"></circle><circle r="14" cx="592" cy="241"></circle><circle r="1" cx="943" cy="349"></circle><circle r="12" cx="884" cy="127"></circle><circle r="3" cx="42" cy="457"></circle><circle r="20" cx="488" cy="363"></circle><circle r="20" cx="780" cy="520"></circle><circle r="5" cx="518" cy="61"></circle><circle r="17" cx="583" cy="517"></circle><circle r="11" cx="187" cy="304"></circle><circle r="17" cx="750" cy="155"></circle><circle r="14" cx="258" cy="362"></circle><circle r="1" cx="756" cy="373"></circle><circle r="0" cx="835" cy="495"></circle><circle r="1" cx="273" cy="527"></circle><circle r="3" cx="571" cy="325"></circle><circle r="16" cx="668" cy="39"></circle><circle r="7" cx="799" cy="100"></circle><circle r="9" cx="266" cy="74"></circle><circle r="6" cx="639" cy="402"></circle><circle r="0" cx="593" cy="133"></circle><circle r="4" cx="386" cy="527"></circle><circle r="-1" cx="118" cy="158"></circle><circle r="15" cx="899" cy="16"></circle><circle r="3" cx="297" cy="412"></circle><circle r="14" cx="435" cy="527"></circle><circle r="1" cx="38" cy="146"></circle><circle r="12" cx="876" cy="228"></circle><circle r="17" cx="111" cy="455"></circle><circle r="13" cx="480" cy="114"></circle></g></svg>