<svg xmlns="http://www.w3.org/2000/svg" version="1.1" xmlns:xlink="http://www.w3.org/1999/xlink" xmlns:svgjs="http://svgjs.dev/svgjs" width="1440" height="560" preserveAspectRatio="none" viewBox="0 0 1440 560"><g mask="url(&quot;#SvgjsMask1009&quot;)" fill="none"><path d="M-258.8 51.49C-142 51.69-27.84 121.49 203.12 121.49 434.08 121.49 408.54 39.82 665.05 51.49 921.55 63.16 960.2 521.84 1126.97 570.25" stroke="rgba(241, 241, 241, 0.58)" stroke-width="2"></path><path d="M-247.89 191.38C-91.96 194.91 24.87 402.84 336.5 409.78 648.12 416.72 765.18 622.17 920.88 625.58" stroke="rgba(241, 241, 241, 0.58)" stroke-width="2"></path><path d="M-239.53 308.24C-139.97 308.51-43.51 378.24 152.51 378.24 348.53 378.24 337.49 304.6 544.55 308.24 751.61 311.88 809.21 623.39 936.59 645.5" stroke="rgba(241, 241, 241, 0.58)" stroke-width="2"></path><path d="M-287.34 150.35C-136.46 153.84-24.77 355.84 277.61 363.15 579.99 370.46 691.06 579.06 842.56 582.88" stroke="rgba(241, 241, 241, 0.58)" stroke-width="2"></path><path d="M-6.59 142.31C103.51 142.53 210.81 212.31 428.2 212.31 645.6 212.31 622.25 131.79 863 142.31 1103.75 152.83 1141.14 583.12 1297.79 628.18" stroke="rgba(241, 241, 241, 0.58)" stroke-width="2"></path></g><defs><mask id="SvgjsMask1009"><rect width="1440" height="560" fill="#ffffff"></rect></mask></defs></svg>