<svg xmlns="http://www.w3.org/2000/svg" version="1.1" xmlns:xlink="http://www.w3.org/1999/xlink" xmlns:svgjs="http://svgjs.dev/svgjs" width="1440" height="560" preserveAspectRatio="none" viewBox="0 0 1440 560"><g mask="url(&quot;#SvgjsMask1014&quot;)" fill="none"><path d="M-89.61 367.59L-89.61 367.59" stroke="rgba(241, 241, 241, 1)" stroke-width="1.5"></path><path d="M-89.61 367.59L86.63 341.31" stroke="rgba(241, 241, 241, 1)" stroke-width="1.5"></path><path d="M-89.61 367.59L61.94 522.04" stroke="rgba(241, 241, 241, 1)" stroke-width="1.5"></path><path d="M-74.79 648.58L-74.79 648.58" stroke="rgba(241, 241, 241, 1)" stroke-width="1.5"></path><path d="M-74.79 648.58L42.9 702.21" stroke="rgba(241, 241, 241, 1)" stroke-width="1.5"></path><path d="M-74.79 648.58L61.94 522.04" stroke="rgba(241, 241, 241, 1)" stroke-width="1.5"></path><path d="M-74.79 648.58L-89.61 367.59" stroke="rgba(241, 241, 241, 1)" stroke-width="1.5"></path><path d="M-74.79 648.58L235.04 706.16" stroke="rgba(241, 241, 241, 1)" stroke-width="1.5"></path><path d="M86.63 341.31L86.63 341.31" stroke="rgba(241, 241, 241, 1)" stroke-width="1.5"></path><path d="M86.63 341.31L199.95 395.63" stroke="rgba(241, 241, 241, 1)" stroke-width="1.5"></path><path d="M61.94 522.04L61.94 522.04" stroke="rgba(241, 241, 241, 1)" stroke-width="1.5"></path><path d="M61.94 522.04L42.9 702.21" stroke="rgba(241, 241, 241, 1)" stroke-width="1.5"></path><path d="M61.94 522.04L86.63 341.31" stroke="rgba(241, 241, 241, 1)" stroke-width="1.5"></path><path d="M42.9 702.21L42.9 702.21" stroke="rgba(241, 241, 241, 1)" stroke-width="1.5"></path><path d="M42.9 702.21L235.04 706.16" stroke="rgba(241, 241, 241, 1)" stroke-width="1.5"></path><path d="M42.9 702.21L249.64 509.22" stroke="rgba(241, 241, 241, 1)" stroke-width="1.5"></path><path d="M42.9 702.21L199.95 395.63" stroke="rgba(241, 241, 241, 1)" stroke-width="1.5"></path><path d="M199.95 395.63L199.95 395.63" stroke="rgba(241, 241, 241, 1)" stroke-width="1.5"></path><path d="M199.95 395.63L249.64 509.22" stroke="rgba(241, 241, 241, 1)" stroke-width="1.5"></path><path d="M199.95 395.63L378.27 365.83" stroke="rgba(241, 241, 241, 1)" stroke-width="1.5"></path><path d="M249.64 509.22L249.64 509.22" stroke="rgba(241, 241, 241, 1)" stroke-width="1.5"></path><path d="M249.64 509.22L385.69 500.77" stroke="rgba(241, 241, 241, 1)" stroke-width="1.5"></path><path d="M249.64 509.22L61.94 522.04" stroke="rgba(241, 241, 241, 1)" stroke-width="1.5"></path><path d="M249.64 509.22L378.27 365.83" stroke="rgba(241, 241, 241, 1)" stroke-width="1.5"></path><path d="M249.64 509.22L235.04 706.16" stroke="rgba(241, 241, 241, 1)" stroke-width="1.5"></path><path d="M235.04 706.16L235.04 706.16" stroke="rgba(241, 241, 241, 1)" stroke-width="1.5"></path><path d="M235.04 706.16L401.87 695.04" stroke="rgba(241, 241, 241, 1)" stroke-width="1.5"></path><path d="M235.04 706.16L61.94 522.04" stroke="rgba(241, 241, 241, 1)" stroke-width="1.5"></path><path d="M378.27 365.83L378.27 365.83" stroke="rgba(241, 241, 241, 1)" stroke-width="1.5"></path><path d="M378.27 365.83L385.69 500.77" stroke="rgba(241, 241, 241, 1)" stroke-width="1.5"></path><path d="M378.27 365.83L533.95 394.55" stroke="rgba(241, 241, 241, 1)" stroke-width="1.5"></path><path d="M385.69 500.77L385.69 500.77" stroke="rgba(241, 241, 241, 1)" stroke-width="1.5"></path><path d="M401.87 695.04L401.87 695.04" stroke="rgba(241, 241, 241, 1)" stroke-width="1.5"></path><path d="M401.87 695.04L489.52 657.4" stroke="rgba(241, 241, 241, 1)" stroke-width="1.5"></path><path d="M533.95 394.55L533.95 394.55" stroke="rgba(241, 241, 241, 1)" stroke-width="1.5"></path><path d="M533.95 394.55L649.23 505.89" stroke="rgba(241, 241, 241, 1)" stroke-width="1.5"></path><path d="M533.95 394.55L711 369.6" stroke="rgba(241, 241, 241, 1)" stroke-width="1.5"></path><path d="M533.95 394.55L385.69 500.77" stroke="rgba(241, 241, 241, 1)" stroke-width="1.5"></path><path d="M533.95 394.55L640.53 228.69" stroke="rgba(241, 241, 241, 1)" stroke-width="1.5"></path><path d="M489.52 657.4L489.52 657.4" stroke="rgba(241, 241, 241, 1)" stroke-width="1.5"></path><path d="M489.52 657.4L669.39 666.52" stroke="rgba(241, 241, 241, 1)" stroke-width="1.5"></path><path d="M489.52 657.4L385.69 500.77" stroke="rgba(241, 241, 241, 1)" stroke-width="1.5"></path><path d="M640.53 228.69L640.53 228.69" stroke="rgba(241, 241, 241, 1)" stroke-width="1.5"></path><path d="M640.53 228.69L711 369.6" stroke="rgba(241, 241, 241, 1)" stroke-width="1.5"></path><path d="M640.53 228.69L829.41 233.29" stroke="rgba(241, 241, 241, 1)" stroke-width="1.5"></path><path d="M711 369.6L711 369.6" stroke="rgba(241, 241, 241, 1)" stroke-width="1.5"></path><path d="M711 369.6L804.84 338.41" stroke="rgba(241, 241, 241, 1)" stroke-width="1.5"></path><path d="M711 369.6L649.23 505.89" stroke="rgba(241, 241, 241, 1)" stroke-width="1.5"></path><path d="M649.23 505.89L649.23 505.89" stroke="rgba(241, 241, 241, 1)" stroke-width="1.5"></path><path d="M649.23 505.89L669.39 666.52" stroke="rgba(241, 241, 241, 1)" stroke-width="1.5"></path><path d="M649.23 505.89L826.87 490.05" stroke="rgba(241, 241, 241, 1)" stroke-width="1.5"></path><path d="M669.39 666.52L669.39 666.52" stroke="rgba(241, 241, 241, 1)" stroke-width="1.5"></path><path d="M669.39 666.52L825.74 673.07" stroke="rgba(241, 241, 241, 1)" stroke-width="1.5"></path><path d="M669.39 666.52L826.87 490.05" stroke="rgba(241, 241, 241, 1)" stroke-width="1.5"></path><path d="M829.41 233.29L829.41 233.29" stroke="rgba(241, 241, 241, 1)" stroke-width="1.5"></path><path d="M829.41 233.29L804.84 338.41" stroke="rgba(241, 241, 241, 1)" stroke-width="1.5"></path><path d="M829.41 233.29L960.34 246.57" stroke="rgba(241, 241, 241, 1)" stroke-width="1.5"></path><path d="M829.41 233.29L711 369.6" stroke="rgba(241, 241, 241, 1)" stroke-width="1.5"></path><path d="M829.41 233.29L972.45 361.25" stroke="rgba(241, 241, 241, 1)" stroke-width="1.5"></path><path d="M829.41 233.29L994.88 51.96" stroke="rgba(241, 241, 241, 1)" stroke-width="1.5"></path><path d="M804.84 338.41L804.84 338.41" stroke="rgba(241, 241, 241, 1)" stroke-width="1.5"></path><path d="M804.84 338.41L826.87 490.05" stroke="rgba(241, 241, 241, 1)" stroke-width="1.5"></path><path d="M826.87 490.05L826.87 490.05" stroke="rgba(241, 241, 241, 1)" stroke-width="1.5"></path><path d="M826.87 490.05L950.23 513.84" stroke="rgba(241, 241, 241, 1)" stroke-width="1.5"></path><path d="M826.87 490.05L711 369.6" stroke="rgba(241, 241, 241, 1)" stroke-width="1.5"></path><path d="M826.87 490.05L825.74 673.07" stroke="rgba(241, 241, 241, 1)" stroke-width="1.5"></path><path d="M825.74 673.07L825.74 673.07" stroke="rgba(241, 241, 241, 1)" stroke-width="1.5"></path><path d="M825.74 673.07L949.23 663.26" stroke="rgba(241, 241, 241, 1)" stroke-width="1.5"></path><path d="M952.66 -83.77L952.66 -83.77" stroke="rgba(241, 241, 241, 1)" stroke-width="1.5"></path><path d="M952.66 -83.77L994.88 51.96" stroke="rgba(241, 241, 241, 1)" stroke-width="1.5"></path><path d="M952.66 -83.77L1136.4 -48.52" stroke="rgba(241, 241, 241, 1)" stroke-width="1.5"></path><path d="M952.66 -83.77L1155.78 62.44" stroke="rgba(241, 241, 241, 1)" stroke-width="1.5"></path><path d="M994.88 51.96L994.88 51.96" stroke="rgba(241, 241, 241, 1)" stroke-width="1.5"></path><path d="M960.34 246.57L960.34 246.57" stroke="rgba(241, 241, 241, 1)" stroke-width="1.5"></path><path d="M960.34 246.57L972.45 361.25" stroke="rgba(241, 241, 241, 1)" stroke-width="1.5"></path><path d="M960.34 246.57L1116.91 203.81" stroke="rgba(241, 241, 241, 1)" stroke-width="1.5"></path><path d="M960.34 246.57L804.84 338.41" stroke="rgba(241, 241, 241, 1)" stroke-width="1.5"></path><path d="M960.34 246.57L994.88 51.96" stroke="rgba(241, 241, 241, 1)" stroke-width="1.5"></path><path d="M972.45 361.25L972.45 361.25" stroke="rgba(241, 241, 241, 1)" stroke-width="1.5"></path><path d="M972.45 361.25L950.23 513.84" stroke="rgba(241, 241, 241, 1)" stroke-width="1.5"></path><path d="M972.45 361.25L1139.9 352.15" stroke="rgba(241, 241, 241, 1)" stroke-width="1.5"></path><path d="M972.45 361.25L804.84 338.41" stroke="rgba(241, 241, 241, 1)" stroke-width="1.5"></path><path d="M950.23 513.84L950.23 513.84" stroke="rgba(241, 241, 241, 1)" stroke-width="1.5"></path><path d="M950.23 513.84L949.23 663.26" stroke="rgba(241, 241, 241, 1)" stroke-width="1.5"></path><path d="M950.23 513.84L1099.9 555.57" stroke="rgba(241, 241, 241, 1)" stroke-width="1.5"></path><path d="M950.23 513.84L825.74 673.07" stroke="rgba(241, 241, 241, 1)" stroke-width="1.5"></path><path d="M949.23 663.26L949.23 663.26" stroke="rgba(241, 241, 241, 1)" stroke-width="1.5"></path><path d="M949.23 663.26L1123.7 694.17" stroke="rgba(241, 241, 241, 1)" stroke-width="1.5"></path><path d="M949.23 663.26L1099.9 555.57" stroke="rgba(241, 241, 241, 1)" stroke-width="1.5"></path><path d="M949.23 663.26L826.87 490.05" stroke="rgba(241, 241, 241, 1)" stroke-width="1.5"></path><path d="M1136.4 -48.52L1136.4 -48.52" stroke="rgba(241, 241, 241, 1)" stroke-width="1.5"></path><path d="M1136.4 -48.52L1155.78 62.44" stroke="rgba(241, 241, 241, 1)" stroke-width="1.5"></path><path d="M1136.4 -48.52L1291.95 -98.02" stroke="rgba(241, 241, 241, 1)" stroke-width="1.5"></path><path d="M1155.78 62.44L1155.78 62.44" stroke="rgba(241, 241, 241, 1)" stroke-width="1.5"></path><path d="M1155.78 62.44L1271.54 86.06" stroke="rgba(241, 241, 241, 1)" stroke-width="1.5"></path><path d="M1155.78 62.44L1116.91 203.81" stroke="rgba(241, 241, 241, 1)" stroke-width="1.5"></path><path d="M1116.91 203.81L1116.91 203.81" stroke="rgba(241, 241, 241, 1)" stroke-width="1.5"></path><path d="M1116.91 203.81L1256.15 254.42" stroke="rgba(241, 241, 241, 1)" stroke-width="1.5"></path><path d="M1116.91 203.81L1139.9 352.15" stroke="rgba(241, 241, 241, 1)" stroke-width="1.5"></path><path d="M1139.9 352.15L1139.9 352.15" stroke="rgba(241, 241, 241, 1)" stroke-width="1.5"></path><path d="M1139.9 352.15L1256.15 254.42" stroke="rgba(241, 241, 241, 1)" stroke-width="1.5"></path><path d="M1139.9 352.15L1297.4 396.16" stroke="rgba(241, 241, 241, 1)" stroke-width="1.5"></path><path d="M1139.9 352.15L1255.95 514.23" stroke="rgba(241, 241, 241, 1)" stroke-width="1.5"></path><path d="M1139.9 352.15L1099.9 555.57" stroke="rgba(241, 241, 241, 1)" stroke-width="1.5"></path><path d="M1099.9 555.57L1099.9 555.57" stroke="rgba(241, 241, 241, 1)" stroke-width="1.5"></path><path d="M1099.9 555.57L1123.7 694.17" stroke="rgba(241, 241, 241, 1)" stroke-width="1.5"></path><path d="M1099.9 555.57L1255.95 514.23" stroke="rgba(241, 241, 241, 1)" stroke-width="1.5"></path><path d="M1099.9 555.57L1237.69 661.08" stroke="rgba(241, 241, 241, 1)" stroke-width="1.5"></path><path d="M1123.7 694.17L1123.7 694.17" stroke="rgba(241, 241, 241, 1)" stroke-width="1.5"></path><path d="M1123.7 694.17L1237.69 661.08" stroke="rgba(241, 241, 241, 1)" stroke-width="1.5"></path><path d="M1123.7 694.17L1255.95 514.23" stroke="rgba(241, 241, 241, 1)" stroke-width="1.5"></path><path d="M1123.7 694.17L950.23 513.84" stroke="rgba(241, 241, 241, 1)" stroke-width="1.5"></path><path d="M1291.95 -98.02L1291.95 -98.02" stroke="rgba(241, 241, 241, 1)" stroke-width="1.5"></path><path d="M1291.95 -98.02L1411.42 -67.3" stroke="rgba(241, 241, 241, 1)" stroke-width="1.5"></path><path d="M1291.95 -98.02L1271.54 86.06" stroke="rgba(241, 241, 241, 1)" stroke-width="1.5"></path><path d="M1271.54 86.06L1271.54 86.06" stroke="rgba(241, 241, 241, 1)" stroke-width="1.5"></path><path d="M1271.54 86.06L1256.15 254.42" stroke="rgba(241, 241, 241, 1)" stroke-width="1.5"></path><path d="M1271.54 86.06L1450.27 50.02" stroke="rgba(241, 241, 241, 1)" stroke-width="1.5"></path><path d="M1256.15 254.42L1256.15 254.42" stroke="rgba(241, 241, 241, 1)" stroke-width="1.5"></path><path d="M1256.15 254.42L1297.4 396.16" stroke="rgba(241, 241, 241, 1)" stroke-width="1.5"></path><path d="M1256.15 254.42L1447.95 236.67" stroke="rgba(241, 241, 241, 1)" stroke-width="1.5"></path><path d="M1297.4 396.16L1297.4 396.16" stroke="rgba(241, 241, 241, 1)" stroke-width="1.5"></path><path d="M1297.4 396.16L1255.95 514.23" stroke="rgba(241, 241, 241, 1)" stroke-width="1.5"></path><path d="M1297.4 396.16L1431.75 390.5" stroke="rgba(241, 241, 241, 1)" stroke-width="1.5"></path><path d="M1297.4 396.16L1430.71 531.29" stroke="rgba(241, 241, 241, 1)" stroke-width="1.5"></path><path d="M1255.95 514.23L1255.95 514.23" stroke="rgba(241, 241, 241, 1)" stroke-width="1.5"></path><path d="M1255.95 514.23L1237.69 661.08" stroke="rgba(241, 241, 241, 1)" stroke-width="1.5"></path><path d="M1255.95 514.23L1430.71 531.29" stroke="rgba(241, 241, 241, 1)" stroke-width="1.5"></path><path d="M1255.95 514.23L1402.66 645.96" stroke="rgba(241, 241, 241, 1)" stroke-width="1.5"></path><path d="M1237.69 661.08L1237.69 661.08" stroke="rgba(241, 241, 241, 1)" stroke-width="1.5"></path><path d="M1237.69 661.08L1402.66 645.96" stroke="rgba(241, 241, 241, 1)" stroke-width="1.5"></path><path d="M1411.42 -67.3L1411.42 -67.3" stroke="rgba(241, 241, 241, 1)" stroke-width="1.5"></path><path d="M1411.42 -67.3L1450.27 50.02" stroke="rgba(241, 241, 241, 1)" stroke-width="1.5"></path><path d="M1411.42 -67.3L1538.77 -51.68" stroke="rgba(241, 241, 241, 1)" stroke-width="1.5"></path><path d="M1450.27 50.02L1450.27 50.02" stroke="rgba(241, 241, 241, 1)" stroke-width="1.5"></path><path d="M1447.95 236.67L1447.95 236.67" stroke="rgba(241, 241, 241, 1)" stroke-width="1.5"></path><path d="M1447.95 236.67L1431.75 390.5" stroke="rgba(241, 241, 241, 1)" stroke-width="1.5"></path><path d="M1447.95 236.67L1568.88 355.93" stroke="rgba(241, 241, 241, 1)" stroke-width="1.5"></path><path d="M1431.75 390.5L1431.75 390.5" stroke="rgba(241, 241, 241, 1)" stroke-width="1.5"></path><path d="M1431.75 390.5L1430.71 531.29" stroke="rgba(241, 241, 241, 1)" stroke-width="1.5"></path><path d="M1431.75 390.5L1568.88 355.93" stroke="rgba(241, 241, 241, 1)" stroke-width="1.5"></path><path d="M1431.75 390.5L1592.24 504.22" stroke="rgba(241, 241, 241, 1)" stroke-width="1.5"></path><path d="M1431.75 390.5L1255.95 514.23" stroke="rgba(241, 241, 241, 1)" stroke-width="1.5"></path><path d="M1430.71 531.29L1430.71 531.29" stroke="rgba(241, 241, 241, 1)" stroke-width="1.5"></path><path d="M1430.71 531.29L1402.66 645.96" stroke="rgba(241, 241, 241, 1)" stroke-width="1.5"></path><path d="M1430.71 531.29L1592.24 504.22" stroke="rgba(241, 241, 241, 1)" stroke-width="1.5"></path><path d="M1402.66 645.96L1402.66 645.96" stroke="rgba(241, 241, 241, 1)" stroke-width="1.5"></path><path d="M1538.77 -51.68L1538.77 -51.68" stroke="rgba(241, 241, 241, 1)" stroke-width="1.5"></path><path d="M1538.77 -51.68L1574.79 48.34" stroke="rgba(241, 241, 241, 1)" stroke-width="1.5"></path><path d="M1538.77 -51.68L1450.27 50.02" stroke="rgba(241, 241, 241, 1)" stroke-width="1.5"></path><path d="M1538.77 -51.68L1291.95 -98.02" stroke="rgba(241, 241, 241, 1)" stroke-width="1.5"></path><path d="M1538.77 -51.68L1271.54 86.06" stroke="rgba(241, 241, 241, 1)" stroke-width="1.5"></path><path d="M1538.77 -51.68L1447.95 236.67" stroke="rgba(241, 241, 241, 1)" stroke-width="1.5"></path><path d="M1574.79 48.34L1574.79 48.34" stroke="rgba(241, 241, 241, 1)" stroke-width="1.5"></path><path d="M1574.79 48.34L1450.27 50.02" stroke="rgba(241, 241, 241, 1)" stroke-width="1.5"></path><path d="M1568.88 355.93L1568.88 355.93" stroke="rgba(241, 241, 241, 1)" stroke-width="1.5"></path><path d="M1568.88 355.93L1592.24 504.22" stroke="rgba(241, 241, 241, 1)" stroke-width="1.5"></path><path d="M1568.88 355.93L1430.71 531.29" stroke="rgba(241, 241, 241, 1)" stroke-width="1.5"></path><path d="M1568.88 355.93L1297.4 396.16" stroke="rgba(241, 241, 241, 1)" stroke-width="1.5"></path><path d="M1568.88 355.93L1574.79 48.34" stroke="rgba(241, 241, 241, 1)" stroke-width="1.5"></path><path d="M1592.24 504.22L1592.24 504.22" stroke="rgba(241, 241, 241, 1)" stroke-width="1.5"></path><path d="M1592.24 504.22L1611.3 694.9" stroke="rgba(241, 241, 241, 1)" stroke-width="1.5"></path><path d="M1611.3 694.9L1611.3 694.9" stroke="rgba(241, 241, 241, 1)" stroke-width="1.5"></path><path d="M1611.3 694.9L1402.66 645.96" stroke="rgba(241, 241, 241, 1)" stroke-width="1.5"></path><path d="M1611.3 694.9L1430.71 531.29" stroke="rgba(241, 241, 241, 1)" stroke-width="1.5"></path><path d="M1611.3 694.9L1568.88 355.93" stroke="rgba(241, 241, 241, 1)" stroke-width="1.5"></path><path d="M1611.3 694.9L1431.75 390.5" stroke="rgba(241, 241, 241, 1)" stroke-width="1.5"></path><circle r="5" cx="-89.61" cy="367.59" fill="rgba(241, 241, 241, 1)"></circle><circle r="5" cx="-74.79" cy="648.58" fill="rgba(241, 241, 241, 1)"></circle><circle r="5" cx="86.63" cy="341.31" fill="rgba(241, 241, 241, 1)"></circle><circle r="5" cx="61.94" cy="522.04" fill="rgba(241, 241, 241, 1)"></circle><circle r="5" cx="42.9" cy="702.21" fill="rgba(241, 241, 241, 1)"></circle><circle r="5" cx="199.95" cy="395.63" fill="rgba(241, 241, 241, 1)"></circle><circle r="5" cx="249.64" cy="509.22" fill="rgba(241, 241, 241, 1)"></circle><circle r="5" cx="235.04" cy="706.16" fill="rgba(241, 241, 241, 1)"></circle><circle r="5" cx="378.27" cy="365.83" fill="rgba(241, 241, 241, 1)"></circle><circle r="5" cx="385.69" cy="500.77" fill="rgba(241, 241, 241, 1)"></circle><circle r="5" cx="401.87" cy="695.04" fill="rgba(241, 241, 241, 1)"></circle><circle r="5" cx="533.95" cy="394.55" fill="rgba(241, 241, 241, 1)"></circle><circle r="5" cx="489.52" cy="657.4" fill="rgba(241, 241, 241, 1)"></circle><circle r="5" cx="640.53" cy="228.69" fill="rgba(241, 241, 241, 1)"></circle><circle r="5" cx="711" cy="369.6" fill="rgba(241, 241, 241, 1)"></circle><circle r="5" cx="649.23" cy="505.89" fill="rgba(241, 241, 241, 1)"></circle><circle r="5" cx="669.39" cy="666.52" fill="rgba(241, 241, 241, 1)"></circle><circle r="5" cx="829.41" cy="233.29" fill="rgba(241, 241, 241, 1)"></circle><circle r="5" cx="804.84" cy="338.41" fill="rgba(241, 241, 241, 1)"></circle><circle r="5" cx="826.87" cy="490.05" fill="rgba(241, 241, 241, 1)"></circle><circle r="5" cx="825.74" cy="673.07" fill="rgba(241, 241, 241, 1)"></circle><circle r="5" cx="952.66" cy="-83.77" fill="rgba(241, 241, 241, 1)"></circle><circle r="5" cx="994.88" cy="51.96" fill="rgba(241, 241, 241, 1)"></circle><circle r="5" cx="960.34" cy="246.57" fill="rgba(241, 241, 241, 1)"></circle><circle r="5" cx="972.45" cy="361.25" fill="rgba(241, 241, 241, 1)"></circle><circle r="5" cx="950.23" cy="513.84" fill="rgba(241, 241, 241, 1)"></circle><circle r="5" cx="949.23" cy="663.26" fill="rgba(241, 241, 241, 1)"></circle><circle r="5" cx="1136.4" cy="-48.52" fill="rgba(241, 241, 241, 1)"></circle><circle r="5" cx="1155.78" cy="62.44" fill="rgba(241, 241, 241, 1)"></circle><circle r="5" cx="1116.91" cy="203.81" fill="rgba(241, 241, 241, 1)"></circle><circle r="5" cx="1139.9" cy="352.15" fill="rgba(241, 241, 241, 1)"></circle><circle r="5" cx="1099.9" cy="555.57" fill="rgba(241, 241, 241, 1)"></circle><circle r="5" cx="1123.7" cy="694.17" fill="rgba(241, 241, 241, 1)"></circle><circle r="5" cx="1291.95" cy="-98.02" fill="rgba(241, 241, 241, 1)"></circle><circle r="5" cx="1271.54" cy="86.06" fill="rgba(241, 241, 241, 1)"></circle><circle r="5" cx="1256.15" cy="254.42" fill="rgba(241, 241, 241, 1)"></circle><circle r="5" cx="1297.4" cy="396.16" fill="rgba(241, 241, 241, 1)"></circle><circle r="5" cx="1255.95" cy="514.23" fill="rgba(241, 241, 241, 1)"></circle><circle r="5" cx="1237.69" cy="661.08" fill="rgba(241, 241, 241, 1)"></circle><circle r="5" cx="1411.42" cy="-67.3" fill="rgba(241, 241, 241, 1)"></circle><circle r="5" cx="1450.27" cy="50.02" fill="rgba(241, 241, 241, 1)"></circle><circle r="5" cx="1447.95" cy="236.67" fill="rgba(241, 241, 241, 1)"></circle><circle r="5" cx="1431.75" cy="390.5" fill="rgba(241, 241, 241, 1)"></circle><circle r="5" cx="1430.71" cy="531.29" fill="rgba(241, 241, 241, 1)"></circle><circle r="5" cx="1402.66" cy="645.96" fill="rgba(241, 241, 241, 1)"></circle><circle r="5" cx="1538.77" cy="-51.68" fill="rgba(241, 241, 241, 1)"></circle><circle r="5" cx="1574.79" cy="48.34" fill="rgba(241, 241, 241, 1)"></circle><circle r="5" cx="1568.88" cy="355.93" fill="rgba(241, 241, 241, 1)"></circle><circle r="5" cx="1592.24" cy="504.22" fill="rgba(241, 241, 241, 1)"></circle><circle r="5" cx="1611.3" cy="694.9" fill="rgba(241, 241, 241, 1)"></circle><path d="M-43.28 498.92L-43.28 498.92" stroke="hsl(0, 0%, 100%)" stroke-width="1.5"></path><path d="M-43.28 498.92L-43.57 641.74" stroke="hsl(0, 0%, 100%)" stroke-width="1.5"></path><path d="M-43.28 498.92L106.28 527.42" stroke="hsl(0, 0%, 100%)" stroke-width="1.5"></path><path d="M-43.28 498.92L98.52 666.03" stroke="hsl(0, 0%, 100%)" stroke-width="1.5"></path><path d="M506.07 516.1L506.07 516.1" stroke="hsl(0, 0%, 100%)" stroke-width="1.5"></path><path d="M506.07 516.1L501.24 410.26" stroke="hsl(0, 0%, 100%)" stroke-width="1.5"></path><path d="M506.07 516.1L381.06 549.53" stroke="hsl(0, 0%, 100%)" stroke-width="1.5"></path><path d="M506.07 516.1L685.71 513.77" stroke="hsl(0, 0%, 100%)" stroke-width="1.5"></path><path d="M506.07 516.1L661.77 403.63" stroke="hsl(0, 0%, 100%)" stroke-width="1.5"></path><path d="M506.07 516.1L695.98 640.74" stroke="hsl(0, 0%, 100%)" stroke-width="1.5"></path><path d="M685.71 513.77L685.71 513.77" stroke="hsl(0, 0%, 100%)" stroke-width="1.5"></path><path d="M685.71 513.77L790.32 514.91" stroke="hsl(0, 0%, 100%)" stroke-width="1.5"></path><path d="M685.71 513.77L661.77 403.63" stroke="hsl(0, 0%, 100%)" stroke-width="1.5"></path><path d="M685.71 513.77L695.98 640.74" stroke="hsl(0, 0%, 100%)" stroke-width="1.5"></path><path d="M685.71 513.77L791.61 403.17" stroke="hsl(0, 0%, 100%)" stroke-width="1.5"></path><path d="M695.98 640.74L695.98 640.74" stroke="hsl(0, 0%, 100%)" stroke-width="1.5"></path><path d="M695.98 640.74L828.18 662.62" stroke="hsl(0, 0%, 100%)" stroke-width="1.5"></path><path d="M695.98 640.74L790.32 514.91" stroke="hsl(0, 0%, 100%)" stroke-width="1.5"></path><path d="M828.18 662.62L828.18 662.62" stroke="hsl(0, 0%, 100%)" stroke-width="1.5"></path><path d="M828.18 662.62L968.47 664.34" stroke="hsl(0, 0%, 100%)" stroke-width="1.5"></path><path d="M1104.32 530.61L1104.32 530.61" stroke="hsl(0, 0%, 100%)" stroke-width="1.5"></path><path d="M1104.32 530.61L986.19 534.42" stroke="hsl(0, 0%, 100%)" stroke-width="1.5"></path><path d="M1104.32 530.61L1155.24 658.25" stroke="hsl(0, 0%, 100%)" stroke-width="1.5"></path><path d="M1104.32 530.61L1246.57 548.91" stroke="hsl(0, 0%, 100%)" stroke-width="1.5"></path><path d="M1104.32 530.61L1136.5 351.96" stroke="hsl(0, 0%, 100%)" stroke-width="1.5"></path><path d="M1155.24 658.25L1155.24 658.25" stroke="hsl(0, 0%, 100%)" stroke-width="1.5"></path><path d="M1155.24 658.25L1239.77 674.43" stroke="hsl(0, 0%, 100%)" stroke-width="1.5"></path><path d="M1400.09 -74.91L1400.09 -74.91" stroke="hsl(0, 0%, 100%)" stroke-width="1.5"></path><path d="M1400.09 -74.91L1293.81 -90.61" stroke="hsl(0, 0%, 100%)" stroke-width="1.5"></path><path d="M1400.09 -74.91L1429.76 68.05" stroke="hsl(0, 0%, 100%)" stroke-width="1.5"></path><path d="M1400.09 -74.91L1547.13 -105.43" stroke="hsl(0, 0%, 100%)" stroke-width="1.5"></path><path d="M1400.09 -74.91L1281.02 74.54" stroke="hsl(0, 0%, 100%)" stroke-width="1.5"></path><path d="M1400.09 -74.91L1567.72 57.98" stroke="hsl(0, 0%, 100%)" stroke-width="1.5"></path><path d="M1400.09 -74.91L1399.41 217.67" stroke="hsl(0, 0%, 100%)" stroke-width="1.5"></path><path d="M1462.08 507.14L1462.08 507.14" stroke="hsl(0, 0%, 100%)" stroke-width="1.5"></path><path d="M1462.08 507.14L1391.44 388.75" stroke="hsl(0, 0%, 100%)" stroke-width="1.5"></path><path d="M1462.08 507.14L1604.74 506.38" stroke="hsl(0, 0%, 100%)" stroke-width="1.5"></path><path d="M1462.08 507.14L1584.37 394.05" stroke="hsl(0, 0%, 100%)" stroke-width="1.5"></path><path d="M1567.72 57.98L1567.72 57.98" stroke="hsl(0, 0%, 100%)" stroke-width="1.5"></path><path d="M1567.72 57.98L1429.76 68.05" stroke="hsl(0, 0%, 100%)" stroke-width="1.5"></path><path d="M1567.72 57.98L1547.13 -105.43" stroke="hsl(0, 0%, 100%)" stroke-width="1.5"></path><path d="M-43.57 641.74L-43.57 641.74" stroke="hsl(0, 0%, 100%)" stroke-width="1.5"></path><path d="M-43.57 641.74L98.52 666.03" stroke="hsl(0, 0%, 100%)" stroke-width="1.5"></path><path d="M106.28 527.42L106.28 527.42" stroke="hsl(0, 0%, 100%)" stroke-width="1.5"></path><path d="M106.28 527.42L98.52 666.03" stroke="hsl(0, 0%, 100%)" stroke-width="1.5"></path><path d="M106.28 527.42L-43.57 641.74" stroke="hsl(0, 0%, 100%)" stroke-width="1.5"></path><path d="M106.28 527.42L381.06 549.53" stroke="hsl(0, 0%, 100%)" stroke-width="1.5"></path><path d="M106.28 527.42L506.07 516.1" stroke="hsl(0, 0%, 100%)" stroke-width="1.5"></path><path d="M98.52 666.03L98.52 666.03" stroke="hsl(0, 0%, 100%)" stroke-width="1.5"></path><path d="M98.52 666.03L381.06 549.53" stroke="hsl(0, 0%, 100%)" stroke-width="1.5"></path><path d="M98.52 666.03L506.07 516.1" stroke="hsl(0, 0%, 100%)" stroke-width="1.5"></path><path d="M381.06 549.53L381.06 549.53" stroke="hsl(0, 0%, 100%)" stroke-width="1.5"></path><path d="M381.06 549.53L501.24 410.26" stroke="hsl(0, 0%, 100%)" stroke-width="1.5"></path><path d="M501.24 410.26L501.24 410.26" stroke="hsl(0, 0%, 100%)" stroke-width="1.5"></path><path d="M501.24 410.26L661.77 403.63" stroke="hsl(0, 0%, 100%)" stroke-width="1.5"></path><path d="M501.24 410.26L685.71 513.77" stroke="hsl(0, 0%, 100%)" stroke-width="1.5"></path><path d="M661.77 403.63L661.77 403.63" stroke="hsl(0, 0%, 100%)" stroke-width="1.5"></path><path d="M661.77 403.63L791.61 403.17" stroke="hsl(0, 0%, 100%)" stroke-width="1.5"></path><path d="M661.77 403.63L790.32 514.91" stroke="hsl(0, 0%, 100%)" stroke-width="1.5"></path><path d="M791.61 403.17L791.61 403.17" stroke="hsl(0, 0%, 100%)" stroke-width="1.5"></path><path d="M791.61 403.17L790.32 514.91" stroke="hsl(0, 0%, 100%)" stroke-width="1.5"></path><path d="M791.61 403.17L940.29 348.84" stroke="hsl(0, 0%, 100%)" stroke-width="1.5"></path><path d="M791.61 403.17L986.19 534.42" stroke="hsl(0, 0%, 100%)" stroke-width="1.5"></path><path d="M791.61 403.17L695.98 640.74" stroke="hsl(0, 0%, 100%)" stroke-width="1.5"></path><path d="M790.32 514.91L790.32 514.91" stroke="hsl(0, 0%, 100%)" stroke-width="1.5"></path><path d="M790.32 514.91L828.18 662.62" stroke="hsl(0, 0%, 100%)" stroke-width="1.5"></path><path d="M790.32 514.91L986.19 534.42" stroke="hsl(0, 0%, 100%)" stroke-width="1.5"></path><path d="M940.29 348.84L940.29 348.84" stroke="hsl(0, 0%, 100%)" stroke-width="1.5"></path><path d="M940.29 348.84L986.19 534.42" stroke="hsl(0, 0%, 100%)" stroke-width="1.5"></path><path d="M940.29 348.84L1136.5 351.96" stroke="hsl(0, 0%, 100%)" stroke-width="1.5"></path><path d="M940.29 348.84L790.32 514.91" stroke="hsl(0, 0%, 100%)" stroke-width="1.5"></path><path d="M940.29 348.84L1128.48 199.05" stroke="hsl(0, 0%, 100%)" stroke-width="1.5"></path><path d="M986.19 534.42L986.19 534.42" stroke="hsl(0, 0%, 100%)" stroke-width="1.5"></path><path d="M986.19 534.42L968.47 664.34" stroke="hsl(0, 0%, 100%)" stroke-width="1.5"></path><path d="M986.19 534.42L828.18 662.62" stroke="hsl(0, 0%, 100%)" stroke-width="1.5"></path><path d="M968.47 664.34L968.47 664.34" stroke="hsl(0, 0%, 100%)" stroke-width="1.5"></path><path d="M968.47 664.34L1155.24 658.25" stroke="hsl(0, 0%, 100%)" stroke-width="1.5"></path><path d="M968.47 664.34L1104.32 530.61" stroke="hsl(0, 0%, 100%)" stroke-width="1.5"></path><path d="M968.47 664.34L790.32 514.91" stroke="hsl(0, 0%, 100%)" stroke-width="1.5"></path><path d="M968.47 664.34L1239.77 674.43" stroke="hsl(0, 0%, 100%)" stroke-width="1.5"></path><path d="M1128.48 199.05L1128.48 199.05" stroke="hsl(0, 0%, 100%)" stroke-width="1.5"></path><path d="M1128.48 199.05L1136.5 351.96" stroke="hsl(0, 0%, 100%)" stroke-width="1.5"></path><path d="M1128.48 199.05L1281.02 74.54" stroke="hsl(0, 0%, 100%)" stroke-width="1.5"></path><path d="M1128.48 199.05L1276.5 370.3" stroke="hsl(0, 0%, 100%)" stroke-width="1.5"></path><path d="M1128.48 199.05L1399.41 217.67" stroke="hsl(0, 0%, 100%)" stroke-width="1.5"></path><path d="M1136.5 351.96L1136.5 351.96" stroke="hsl(0, 0%, 100%)" stroke-width="1.5"></path><path d="M1136.5 351.96L1276.5 370.3" stroke="hsl(0, 0%, 100%)" stroke-width="1.5"></path><path d="M1293.81 -90.61L1293.81 -90.61" stroke="hsl(0, 0%, 100%)" stroke-width="1.5"></path><path d="M1293.81 -90.61L1281.02 74.54" stroke="hsl(0, 0%, 100%)" stroke-width="1.5"></path><path d="M1281.02 74.54L1281.02 74.54" stroke="hsl(0, 0%, 100%)" stroke-width="1.5"></path><path d="M1281.02 74.54L1429.76 68.05" stroke="hsl(0, 0%, 100%)" stroke-width="1.5"></path><path d="M1281.02 74.54L1399.41 217.67" stroke="hsl(0, 0%, 100%)" stroke-width="1.5"></path><path d="M1276.5 370.3L1276.5 370.3" stroke="hsl(0, 0%, 100%)" stroke-width="1.5"></path><path d="M1276.5 370.3L1391.44 388.75" stroke="hsl(0, 0%, 100%)" stroke-width="1.5"></path><path d="M1276.5 370.3L1246.57 548.91" stroke="hsl(0, 0%, 100%)" stroke-width="1.5"></path><path d="M1276.5 370.3L1399.41 217.67" stroke="hsl(0, 0%, 100%)" stroke-width="1.5"></path><path d="M1246.57 548.91L1246.57 548.91" stroke="hsl(0, 0%, 100%)" stroke-width="1.5"></path><path d="M1246.57 548.91L1239.77 674.43" stroke="hsl(0, 0%, 100%)" stroke-width="1.5"></path><path d="M1246.57 548.91L1155.24 658.25" stroke="hsl(0, 0%, 100%)" stroke-width="1.5"></path><path d="M1246.57 548.91L1405.2 669.76" stroke="hsl(0, 0%, 100%)" stroke-width="1.5"></path><path d="M1246.57 548.91L1391.44 388.75" stroke="hsl(0, 0%, 100%)" stroke-width="1.5"></path><path d="M1239.77 674.43L1239.77 674.43" stroke="hsl(0, 0%, 100%)" stroke-width="1.5"></path><path d="M1239.77 674.43L1405.2 669.76" stroke="hsl(0, 0%, 100%)" stroke-width="1.5"></path><path d="M1239.77 674.43L1104.32 530.61" stroke="hsl(0, 0%, 100%)" stroke-width="1.5"></path><path d="M1429.76 68.05L1429.76 68.05" stroke="hsl(0, 0%, 100%)" stroke-width="1.5"></path><path d="M1429.76 68.05L1399.41 217.67" stroke="hsl(0, 0%, 100%)" stroke-width="1.5"></path><path d="M1399.41 217.67L1399.41 217.67" stroke="hsl(0, 0%, 100%)" stroke-width="1.5"></path><path d="M1399.41 217.67L1552.14 242.4" stroke="hsl(0, 0%, 100%)" stroke-width="1.5"></path><path d="M1399.41 217.67L1391.44 388.75" stroke="hsl(0, 0%, 100%)" stroke-width="1.5"></path><path d="M1399.41 217.67L1567.72 57.98" stroke="hsl(0, 0%, 100%)" stroke-width="1.5"></path><path d="M1391.44 388.75L1391.44 388.75" stroke="hsl(0, 0%, 100%)" stroke-width="1.5"></path><path d="M1405.2 669.76L1405.2 669.76" stroke="hsl(0, 0%, 100%)" stroke-width="1.5"></path><path d="M1405.2 669.76L1462.08 507.14" stroke="hsl(0, 0%, 100%)" stroke-width="1.5"></path><path d="M1405.2 669.76L1590.33 663.05" stroke="hsl(0, 0%, 100%)" stroke-width="1.5"></path><path d="M1405.2 669.76L1155.24 658.25" stroke="hsl(0, 0%, 100%)" stroke-width="1.5"></path><path d="M1547.13 -105.43L1547.13 -105.43" stroke="hsl(0, 0%, 100%)" stroke-width="1.5"></path><path d="M1547.13 -105.43L1429.76 68.05" stroke="hsl(0, 0%, 100%)" stroke-width="1.5"></path><path d="M1547.13 -105.43L1293.81 -90.61" stroke="hsl(0, 0%, 100%)" stroke-width="1.5"></path><path d="M1547.13 -105.43L1281.02 74.54" stroke="hsl(0, 0%, 100%)" stroke-width="1.5"></path><path d="M1547.13 -105.43L1552.14 242.4" stroke="hsl(0, 0%, 100%)" stroke-width="1.5"></path><path d="M1552.14 242.4L1552.14 242.4" stroke="hsl(0, 0%, 100%)" stroke-width="1.5"></path><path d="M1552.14 242.4L1584.37 394.05" stroke="hsl(0, 0%, 100%)" stroke-width="1.5"></path><path d="M1584.37 394.05L1584.37 394.05" stroke="hsl(0, 0%, 100%)" stroke-width="1.5"></path><path d="M1584.37 394.05L1604.74 506.38" stroke="hsl(0, 0%, 100%)" stroke-width="1.5"></path><path d="M1604.74 506.38L1604.74 506.38" stroke="hsl(0, 0%, 100%)" stroke-width="1.5"></path><path d="M1604.74 506.38L1590.33 663.05" stroke="hsl(0, 0%, 100%)" stroke-width="1.5"></path><path d="M1604.74 506.38L1391.44 388.75" stroke="hsl(0, 0%, 100%)" stroke-width="1.5"></path><path d="M1604.74 506.38L1405.2 669.76" stroke="hsl(0, 0%, 100%)" stroke-width="1.5"></path><path d="M1604.74 506.38L1552.14 242.4" stroke="hsl(0, 0%, 100%)" stroke-width="1.5"></path><path d="M1590.33 663.05L1590.33 663.05" stroke="hsl(0, 0%, 100%)" stroke-width="1.5"></path><path d="M1590.33 663.05L1462.08 507.14" stroke="hsl(0, 0%, 100%)" stroke-width="1.5"></path><circle r="25" cx="-43.28" cy="498.92" fill="url(&quot;#SvgjsRadialGradient1015&quot;)"></circle><circle r="25" cx="506.07" cy="516.1" fill="url(&quot;#SvgjsRadialGradient1015&quot;)"></circle><circle r="25" cx="685.71" cy="513.77" fill="url(&quot;#SvgjsRadialGradient1015&quot;)"></circle><circle r="25" cx="695.98" cy="640.74" fill="url(&quot;#SvgjsRadialGradient1015&quot;)"></circle><circle r="25" cx="828.18" cy="662.62" fill="url(&quot;#SvgjsRadialGradient1015&quot;)"></circle><circle r="25" cx="1104.32" cy="530.61" fill="url(&quot;#SvgjsRadialGradient1015&quot;)"></circle><circle r="25" cx="1155.24" cy="658.25" fill="url(&quot;#SvgjsRadialGradient1015&quot;)"></circle><circle r="25" cx="1400.09" cy="-74.91" fill="url(&quot;#SvgjsRadialGradient1015&quot;)"></circle><circle r="25" cx="1462.08" cy="507.14" fill="url(&quot;#SvgjsRadialGradient1015&quot;)"></circle><circle r="25" cx="1567.72" cy="57.98" fill="url(&quot;#SvgjsRadialGradient1015&quot;)"></circle><circle r="5" cx="-43.57" cy="641.74" fill="#f1f1f1"></circle><circle r="5" cx="106.28" cy="527.42" fill="#f1f1f1"></circle><circle r="5" cx="98.52" cy="666.03" fill="#f1f1f1"></circle><circle r="5" cx="381.06" cy="549.53" fill="#f1f1f1"></circle><circle r="5" cx="501.24" cy="410.26" fill="#f1f1f1"></circle><circle r="5" cx="661.77" cy="403.63" fill="#f1f1f1"></circle><circle r="5" cx="791.61" cy="403.17" fill="#f1f1f1"></circle><circle r="5" cx="790.32" cy="514.91" fill="#f1f1f1"></circle><circle r="5" cx="940.29" cy="348.84" fill="#f1f1f1"></circle><circle r="5" cx="986.19" cy="534.42" fill="#f1f1f1"></circle><circle r="5" cx="968.47" cy="664.34" fill="#f1f1f1"></circle><circle r="5" cx="1128.48" cy="199.05" fill="#f1f1f1"></circle><circle r="5" cx="1136.5" cy="351.96" fill="#f1f1f1"></circle><circle r="5" cx="1293.81" cy="-90.61" fill="#f1f1f1"></circle><circle r="5" cx="1281.02" cy="74.54" fill="#f1f1f1"></circle><circle r="5" cx="1276.5" cy="370.3" fill="#f1f1f1"></circle><circle r="5" cx="1246.57" cy="548.91" fill="#f1f1f1"></circle><circle r="5" cx="1239.77" cy="674.43" fill="#f1f1f1"></circle><circle r="5" cx="1429.76" cy="68.05" fill="#f1f1f1"></circle><circle r="5" cx="1399.41" cy="217.67" fill="#f1f1f1"></circle><circle r="5" cx="1391.44" cy="388.75" fill="#f1f1f1"></circle><circle r="5" cx="1405.2" cy="669.76" fill="#f1f1f1"></circle><circle r="5" cx="1547.13" cy="-105.43" fill="#f1f1f1"></circle><circle r="5" cx="1552.14" cy="242.4" fill="#f1f1f1"></circle><circle r="5" cx="1584.37" cy="394.05" fill="#f1f1f1"></circle><circle r="5" cx="1604.74" cy="506.38" fill="#f1f1f1"></circle><circle r="5" cx="1590.33" cy="663.05" fill="#f1f1f1"></circle></g><defs><mask id="SvgjsMask1014"><rect width="1440" height="560" fill="#ffffff"></rect></mask><radialGradient id="SvgjsRadialGradient1015"><stop stop-color="#ffffff" offset="0.1"></stop><stop stop-color="rgba(227, 227, 227, 1)" offset="0.2"></stop><stop stop-color="rgba(227, 227, 227, 0)" offset="1"></stop></radialGradient></defs></svg>