<?xml version="1.0" standalone="no"?>
<svg xmlns:xlink="http://www.w3.org/1999/xlink" id="wave" style="transform:rotate(180deg); transition: 0.3s" viewBox="0 0 1440 490" version="1.1" xmlns="http://www.w3.org/2000/svg"><defs><linearGradient id="sw-gradient-0" x1="0" x2="0" y1="1" y2="0"><stop stop-color="rgba(255, 230.414, 222.518, 1)" offset="0%"/><stop stop-color="rgba(203.632, 255, 200.923, 1)" offset="100%"/></linearGradient></defs><path style="transform:translate(0, 0px); opacity:1" fill="url(#sw-gradient-0)" d="M0,294L80,318.5C160,343,320,392,480,351.2C640,310,800,180,960,163.3C1120,147,1280,245,1440,236.8C1600,229,1760,114,1920,122.5C2080,131,2240,261,2400,269.5C2560,278,2720,163,2880,114.3C3040,65,3200,82,3360,98C3520,114,3680,131,3840,138.8C4000,147,4160,147,4320,147C4480,147,4640,147,4800,130.7C4960,114,5120,82,5280,89.8C5440,98,5600,147,5760,187.8C5920,229,6080,261,6240,261.3C6400,261,6560,229,6720,204.2C6880,180,7040,163,7200,204.2C7360,245,7520,343,7680,351.2C7840,359,8000,278,8160,204.2C8320,131,8480,65,8640,32.7C8800,0,8960,0,9120,8.2C9280,16,9440,33,9600,57.2C9760,82,9920,114,10080,171.5C10240,229,10400,310,10560,294C10720,278,10880,163,11040,106.2C11200,49,11360,49,11440,49L11520,49L11520,490L11440,490C11360,490,11200,490,11040,490C10880,490,10720,490,10560,490C10400,490,10240,490,10080,490C9920,490,9760,490,9600,490C9440,490,9280,490,9120,490C8960,490,8800,490,8640,490C8480,490,8320,490,8160,490C8000,490,7840,490,7680,490C7520,490,7360,490,7200,490C7040,490,6880,490,6720,490C6560,490,6400,490,6240,490C6080,490,5920,490,5760,490C5600,490,5440,490,5280,490C5120,490,4960,490,4800,490C4640,490,4480,490,4320,490C4160,490,4000,490,3840,490C3680,490,3520,490,3360,490C3200,490,3040,490,2880,490C2720,490,2560,490,2400,490C2240,490,2080,490,1920,490C1760,490,1600,490,1440,490C1280,490,1120,490,960,490C800,490,640,490,480,490C320,490,160,490,80,490L0,490Z"/><defs><linearGradient id="sw-gradient-1" x1="0" x2="0" y1="1" y2="0"><stop stop-color="rgba(250.767, 233.018, 227.318, 1)" offset="0%"/><stop stop-color="rgba(237.106, 219.776, 181.469, 1)" offset="100%"/></linearGradient></defs><path style="transform:translate(0, 50px); opacity:0.9" fill="url(#sw-gradient-1)" d="M0,441L80,383.8C160,327,320,212,480,187.8C640,163,800,229,960,277.7C1120,327,1280,359,1440,334.8C1600,310,1760,229,1920,220.5C2080,212,2240,278,2400,253.2C2560,229,2720,114,2880,130.7C3040,147,3200,294,3360,334.8C3520,376,3680,310,3840,285.8C4000,261,4160,278,4320,253.2C4480,229,4640,163,4800,171.5C4960,180,5120,261,5280,261.3C5440,261,5600,180,5760,171.5C5920,163,6080,229,6240,236.8C6400,245,6560,196,6720,179.7C6880,163,7040,180,7200,204.2C7360,229,7520,261,7680,277.7C7840,294,8000,294,8160,285.8C8320,278,8480,261,8640,236.8C8800,212,8960,180,9120,196C9280,212,9440,278,9600,302.2C9760,327,9920,310,10080,294C10240,278,10400,261,10560,285.8C10720,310,10880,376,11040,343C11200,310,11360,180,11440,114.3L11520,49L11520,490L11440,490C11360,490,11200,490,11040,490C10880,490,10720,490,10560,490C10400,490,10240,490,10080,490C9920,490,9760,490,9600,490C9440,490,9280,490,9120,490C8960,490,8800,490,8640,490C8480,490,8320,490,8160,490C8000,490,7840,490,7680,490C7520,490,7360,490,7200,490C7040,490,6880,490,6720,490C6560,490,6400,490,6240,490C6080,490,5920,490,5760,490C5600,490,5440,490,5280,490C5120,490,4960,490,4800,490C4640,490,4480,490,4320,490C4160,490,4000,490,3840,490C3680,490,3520,490,3360,490C3200,490,3040,490,2880,490C2720,490,2560,490,2400,490C2240,490,2080,490,1920,490C1760,490,1600,490,1440,490C1280,490,1120,490,960,490C800,490,640,490,480,490C320,490,160,490,80,490L0,490Z"/></svg>